<svg xmlns="http://www.w3.org/2000/svg" width="1120" height="620" viewBox="0 0 1120 620" font-family="'Segoe UI', Roboto, Arial, sans-serif">
  <defs>
    <filter id="sh" x="-40%" y="-40%" width="180%" height="180%">
      <feDropShadow dx="0" dy="2" stdDeviation="4" flood-color="#0f172a" flood-opacity="0.16"/>
    </filter>
    <marker id="ae" markerWidth="13" markerHeight="13" refX="9" refY="5" orient="auto" markerUnits="userSpaceOnUse">
      <path d="M0,0 L10,5 L0,10 z" fill="#64748b"/></marker>
    <marker id="asr" markerWidth="13" markerHeight="13" refX="9" refY="5" orient="auto-start-reverse" markerUnits="userSpaceOnUse">
      <path d="M0,0 L10,5 L0,10 z" fill="#64748b"/></marker>
  </defs>
<rect x="0" y="0" width="1120" height="620" fill="#ffffff"/>
<text x="560" y="46" text-anchor="middle" font-size="23" font-weight="700" fill="#0f172a">Eco Pulse — System / Connectivity State</text>
  <path d="M245,320 C 300,320 300,110 353,110" fill="none" stroke="#64748b" stroke-width="2.5" marker-end="url(#ae)"/>
  <path d="M245,320 C 300,320 300,250 353,250" fill="none" stroke="#64748b" stroke-width="2.5" marker-end="url(#ae)"/>
  <path d="M245,320 C 300,320 300,420 353,420" fill="none" stroke="#64748b" stroke-width="2.5" marker-end="url(#ae)"/>
  <path d="M245,320 C 300,320 300,540 353,540" fill="none" stroke="#64748b" stroke-width="2.5" marker-end="url(#ae)"/>
  <path d="M585,250 C 660,250 650,200 713,200" fill="none" stroke="#64748b" stroke-width="2.5" marker-end="url(#ae)"/>
  <rect x="600" y="176" width="97" height="17" rx="4" fill="#ffffff" opacity="0.92"/><text x="648" y="188" text-anchor="middle" font-size="11.5" font-weight="600" fill="#475569">Wi-Fi + MQTT up</text>
  <path d="M585,250 C 660,250 650,300 713,300" fill="none" stroke="#64748b" stroke-width="2.5" marker-end="url(#ae)"/>
  <rect x="580" y="348" width="135" height="17" rx="4" fill="#ffffff" opacity="0.92"/><text x="648" y="360" text-anchor="middle" font-size="11.5" font-weight="600" fill="#475569">Wi-Fi up, broker down</text>
  <line x1="585" y1="420" x2="713" y2="420" stroke="#64748b" stroke-width="2.5"False marker-end="url(#ae)"/>
  <rect x="418" y="84" width="103" height="17" rx="4" fill="#ffffff" opacity="0.92"/><text x="470" y="96" text-anchor="middle" font-size="11.5" font-weight="600" fill="#475569">no SSID / config</text>
  <line x1="830" y1="330" x2="830" y2="508" stroke="#64748b" stroke-width="2.5"True marker-end="url(#ae)"/>
  <rect x="845" y="408" width="77" height="17" rx="4" fill="#ffffff" opacity="0.92"/><text x="845" y="420" text-anchor="start" font-size="11.5" font-weight="600" fill="#475569">60 s offline</text>
  <rect x="55" y="285" width="190" height="70" rx="14" fill="#64748b" filter="url(#sh)"/>
  <text x="150" y="325" text-anchor="middle" font-size="15" font-weight="700" fill="#ffffff">SYS_BOOTING</text>
  <rect x="355" y="80" width="230" height="60" rx="14" fill="#2563eb" filter="url(#sh)"/>
  <text x="470" y="115" text-anchor="middle" font-size="15" font-weight="700" fill="#ffffff">SYS_AP_MODE</text>
  <rect x="355" y="220" width="230" height="60" rx="14" fill="#3b82f6" filter="url(#sh)"/>
  <text x="470" y="255" text-anchor="middle" font-size="15" font-weight="700" fill="#ffffff">SYS_WIFI_CONN</text>
  <rect x="355" y="390" width="230" height="60" rx="14" fill="#0891b2" filter="url(#sh)"/>
  <text x="470" y="425" text-anchor="middle" font-size="15" font-weight="700" fill="#ffffff">SYS_GSM_CONN</text>
  <rect x="355" y="510" width="230" height="60" rx="14" fill="#dc2626" filter="url(#sh)"/>
  <text x="470" y="545" text-anchor="middle" font-size="15" font-weight="700" fill="#ffffff">SYS_ERROR</text>
  <rect x="715" y="170" width="230" height="60" rx="14" fill="#059669" filter="url(#sh)"/>
  <text x="830" y="197" text-anchor="middle" font-size="15" font-weight="700" fill="#ffffff">SYS_WIFI_OK</text>
  <text x="830" y="215" text-anchor="middle" font-size="11.5" fill="#ffffff" opacity="0.92">delivering data</text>
  <rect x="715" y="270" width="230" height="60" rx="14" fill="#ea580c" filter="url(#sh)"/>
  <text x="830" y="297" text-anchor="middle" font-size="15" font-weight="700" fill="#ffffff">SYS_MQTT_DOWN</text>
  <text x="830" y="315" text-anchor="middle" font-size="11.5" fill="#ffffff" opacity="0.92">not sending</text>
  <rect x="715" y="390" width="230" height="60" rx="14" fill="#059669" filter="url(#sh)"/>
  <text x="830" y="425" text-anchor="middle" font-size="15" font-weight="700" fill="#ffffff">SYS_GSM_OK</text>
  <rect x="680" y="508" width="300" height="64" rx="14" fill="#c026d3" filter="url(#sh)"/>
  <text x="830" y="537" text-anchor="middle" font-size="15" font-weight="700" fill="#ffffff">Offline failsafe</text>
  <text x="830" y="555" text-anchor="middle" font-size="11.5" fill="#ffffff" opacity="0.92">magenta override · radar takes over</text>
</svg>